<svg width="1020" height="667" viewBox="0 0 1020 667" fill="none" xmlns="http://www.w3.org/2000/svg">
<path d="M853.777 74.1485C846.297 63.3312 834.496 57.2678 822.549 57.3496C810.602 57.4315 798.949 64.5071 791.169 75.5335C781.459 71.6523 770.696 67.0863 760.906 63.3048C770.925 49.3062 784.899 39.1585 799.452 34.2582C814.619 29.194 831.224 29.905 846.239 34.7717C860.607 39.4458 873.676 48.511 883.137 62.2447C873.27 66.3125 863.645 70.0808 853.777 74.1485Z" fill="#26A192"/>
<rect x="35.5" y="240.53" width="660" height="425" fill="#F0EACF"/>
<g filter="url(#filter0_d)">
<rect x="175.5" y="52.5298" width="820" height="540" rx="10" fill="white"/>
</g>
<path d="M175.5 62.5298C175.5 57.0069 179.977 52.5298 185.5 52.5298H985.5C991.023 52.5298 995.5 57.0069 995.5 62.5298V98.5298H175.5V62.5298Z" fill="#EEF0F1"/>
<circle cx="208" cy="76.0298" r="5.5" fill="#A6A9AB"/>
<circle cx="228" cy="76.0298" r="5.5" fill="#A6A9AB"/>
<circle cx="248" cy="76.0298" r="5.5" fill="#A6A9AB"/>
<rect x="225.561" y="137.53" width="170.208" height="20" rx="10" fill="#3770FF"/>
<rect x="860.335" y="137.538" width="86.105" height="20.0031" rx="10.0016" fill="#EEF0F1"/>
<rect x="758.211" y="137.538" width="86.105" height="20.0031" rx="10.0016" fill="#EEF0F1"/>
<path d="M225.561 234.53C225.561 230.112 229.143 226.53 233.561 226.53H938.44C942.858 226.53 946.44 230.112 946.44 234.53V592.53H225.561V234.53Z" fill="#EBEEFF"/>
<path d="M586.001 291.53C622.489 291.53 652.076 261.985 652.076 225.53C652.076 189.074 622.489 159.53 586.001 159.53C549.513 159.53 519.925 189.074 519.925 225.53C519.925 261.985 549.513 291.53 586.001 291.53Z" fill="#EBEEFF" stroke="white" stroke-width="8"/>
<rect x="415.793" y="320.53" width="217.265" height="10" rx="5" fill="#BACDF7"/>
<rect x="415.793" y="446.53" width="98.1197" height="10" rx="5" fill="#BACDF7"/>
<rect x="415.793" y="346.53" width="339.414" height="8" rx="4" fill="#BACDF7"/>
<rect x="415.793" y="472.53" width="132.161" height="8" rx="4" fill="#BACDF7"/>
<rect x="415.793" y="366.53" width="284.347" height="8" rx="4" fill="#BACDF7"/>
<rect x="415.793" y="492.53" width="284.347" height="8" rx="4" fill="#BACDF7"/>
<rect x="415.793" y="386.53" width="305.372" height="8" rx="4" fill="#BACDF7"/>
<rect x="415.793" y="512.53" width="240.293" height="8" rx="4" fill="#BACDF7"/>
<rect x="415.793" y="406.53" width="203.248" height="8" rx="4" fill="#BACDF7"/>
<rect x="415.793" y="532.53" width="203.248" height="8" rx="4" fill="#BACDF7"/>
<circle cx="889.5" cy="284.53" r="25" fill="#3770FF"/>
<circle cx="889.5" cy="350.53" r="25" fill="#3770FF"/>
<path d="M882.167 284.53V291.863C882.167 292.349 882.36 292.816 882.704 293.159C883.047 293.503 883.514 293.696 884 293.696H895C895.486 293.696 895.953 293.503 896.296 293.159C896.64 292.816 896.833 292.349 896.833 291.863V284.53" stroke="white" stroke-width="2" stroke-linecap="round" stroke-linejoin="round"/>
<path d="M893.167 279.03L889.5 275.363L885.833 279.03" stroke="white" stroke-width="2" stroke-linecap="round" stroke-linejoin="round"/>
<path d="M889.5 275.363V287.28" stroke="white" stroke-width="2" stroke-linecap="round" stroke-linejoin="round"/>
<path d="M884 347.78V341.363H895V347.78" stroke="#FFFBFB" stroke-width="2" stroke-linecap="round" stroke-linejoin="round"/>
<path d="M884 356.03H882.167C881.68 356.03 881.214 355.837 880.87 355.493C880.526 355.149 880.333 354.683 880.333 354.196V349.613C880.333 349.127 880.526 348.661 880.87 348.317C881.214 347.973 881.68 347.78 882.167 347.78H896.833C897.32 347.78 897.786 347.973 898.13 348.317C898.474 348.661 898.667 349.127 898.667 349.613V354.196C898.667 354.683 898.474 355.149 898.13 355.493C897.786 355.837 897.32 356.03 896.833 356.03H895" stroke="#FFFBFB" stroke-width="2" stroke-linecap="round" stroke-linejoin="round"/>
<path d="M895 352.363H884V359.696H895V352.363Z" stroke="#FFFBFB" stroke-width="2" stroke-linecap="round" stroke-linejoin="round"/>
<circle cx="462" cy="317.03" r="3.5" fill="#3936AB"/>
<g filter="url(#filter1_d)">
<path d="M21.5 226.53C17.0817 226.53 13.5 230.112 13.5 234.53V286.53C13.5 290.948 17.0817 294.53 21.5 294.53H449.822L462.178 306.885L474.533 294.53H605.5C609.918 294.53 613.5 290.948 613.5 286.53V234.53C613.5 230.112 609.918 226.53 605.5 226.53H21.5Z" fill="#3936AB"/>
</g>
<mask id="mask0" mask-type="alpha" maskUnits="userSpaceOnUse" x="13" y="226" width="601" height="81">
<path d="M21.5 226.53C17.0817 226.53 13.5 230.112 13.5 234.53V286.53C13.5 290.948 17.0817 294.53 21.5 294.53H449.822L462.178 306.885L474.533 294.53H605.5C609.918 294.53 613.5 290.948 613.5 286.53V234.53C613.5 230.112 609.918 226.53 605.5 226.53H21.5Z" fill="#3936AB"/>
</mask>
<g mask="url(#mask0)">
<path d="M56.9135 198.603L47.1686 204.089C45.4167 205.076 45.308 207.595 47.0606 208.689L56.4807 214.702C58.6166 216.069 57.8511 219.355 55.3872 219.631L44.2721 221.012C42.2462 221.288 41.2065 223.534 42.4117 225.175L48.8212 234.422C50.2456 236.502 48.33 239.187 45.9205 238.532L35.1325 235.532C33.1611 234.986 31.3547 236.685 31.7934 238.656L34.2062 249.605C34.7546 252.014 31.9079 253.878 29.9361 252.347L21.1181 245.402C19.5297 244.144 17.1755 245.078 16.8476 247.049L14.9347 258.057C14.4975 260.577 11.2123 261.128 9.95218 258.884L4.47334 249.143C3.48716 247.392 0.968325 247.285 -0.126228 249.038L-6.20109 258.517C-7.5693 260.654 -10.8549 259.891 -11.1295 257.427L-12.5021 246.313C-12.7765 244.287 -15.0219 243.249 -16.6642 244.456L-25.8612 250.817C-27.9414 252.243 -30.6251 250.329 -29.9689 247.919L-26.9608 237.129C-26.4139 235.157 -28.1119 233.352 -30.083 233.792L-41.0882 236.267C-43.4973 236.817 -45.36 233.972 -43.8274 231.999L-36.8763 223.176C-35.6174 221.587 -36.549 219.233 -38.5204 218.907L-49.527 217.002C-52.046 216.566 -52.5946 213.281 -50.35 212.02L-40.6599 206.479C-38.908 205.492 -38.7994 202.973 -40.5519 201.88L-49.972 195.866C-52.1079 194.5 -51.3424 191.213 -48.8785 190.937L-37.7634 189.557C-35.7375 189.281 -34.6978 187.035 -35.903 185.393L-42.3125 176.256C-43.7369 174.176 -41.8213 171.491 -39.4118 172.146L-28.6238 175.146C-26.6524 175.692 -24.846 173.992 -25.2847 172.022L-27.6975 161.073C-28.2459 158.664 -25.3992 156.8 -23.4274 158.331L-14.6094 165.276C-13.021 166.533 -10.6668 165.6 -10.3389 163.629L-8.42603 152.621C-7.9888 150.101 -4.70359 149.55 -3.44346 151.794L2.03537 161.535C3.02156 163.286 5.54039 163.393 6.63495 161.64L12.6551 152.215C14.0233 150.079 17.3089 150.842 17.5835 153.306L19.0108 164.255C19.2852 166.281 21.5306 167.319 23.1729 166.113L32.3151 159.697C34.3954 158.271 37.0791 160.185 36.4228 162.595L33.4147 173.385C32.8678 175.357 34.5658 177.162 36.5369 176.722L47.4874 174.301C49.8965 173.751 51.7592 176.597 50.2266 178.569L43.3849 187.392C42.1261 188.981 43.0577 191.335 45.029 191.661L56.0357 193.567C58.5547 194.112 59.1033 197.396 56.9135 198.603Z" fill="#FFD74A"/>
<path d="M460.713 305.434L472.21 283.971C472.91 282.656 474.661 282.253 475.859 283.134C484.761 289.802 487.135 303.669 481.437 316.392C480.856 317.706 479.285 318.227 477.999 317.555L461.699 308.815C460.503 308.172 460.041 306.659 460.713 305.434Z" fill="#81A2EF"/>
</g>
<path d="M46.4629 265.53H41.7029L41.0229 268.53H38.2629L41.6029 254.53H46.5629L49.9029 268.53H47.1429L46.4629 265.53ZM42.2629 263.01H45.8829L44.2629 255.85H43.9029L42.2629 263.01ZM53.869 268.53H51.349V254.53H53.869V260.05H54.229C54.4957 259.503 54.8823 259.083 55.389 258.79C55.8957 258.483 56.5423 258.33 57.329 258.33C57.9157 258.33 58.469 258.443 58.989 258.67C59.5223 258.896 59.9823 259.23 60.369 259.67C60.769 260.096 61.0823 260.623 61.309 261.25C61.549 261.876 61.669 262.59 61.669 263.39V263.75C61.669 264.563 61.5557 265.283 61.329 265.91C61.1023 266.536 60.7957 267.07 60.409 267.51C60.0223 267.936 59.5623 268.263 59.029 268.49C58.509 268.703 57.9423 268.81 57.329 268.81C56.8757 268.81 56.4823 268.763 56.149 268.67C55.8157 268.576 55.5223 268.45 55.269 268.29C55.029 268.13 54.8223 267.95 54.649 267.75C54.489 267.536 54.349 267.316 54.229 267.09H53.869V268.53ZM56.509 266.41C57.2957 266.41 57.929 266.17 58.409 265.69C58.9023 265.196 59.149 264.53 59.149 263.69V263.45C59.149 262.61 58.9023 261.95 58.409 261.47C57.929 260.976 57.2957 260.73 56.509 260.73C55.7223 260.73 55.0823 260.983 54.589 261.49C54.109 261.983 53.869 262.636 53.869 263.45V263.69C53.869 264.503 54.109 265.163 54.589 265.67C55.0823 266.163 55.7223 266.41 56.509 266.41ZM73.7351 263.69C73.7351 264.516 73.5951 265.25 73.3151 265.89C73.0351 266.516 72.6551 267.05 72.1751 267.49C71.6951 267.916 71.1417 268.243 70.5151 268.47C69.9017 268.696 69.2551 268.81 68.5751 268.81C67.8951 268.81 67.2417 268.696 66.6151 268.47C66.0017 268.243 65.4551 267.916 64.9751 267.49C64.4951 267.05 64.1151 266.516 63.8351 265.89C63.5551 265.25 63.4151 264.516 63.4151 263.69V263.45C63.4151 262.636 63.5551 261.916 63.8351 261.29C64.1151 260.65 64.4951 260.11 64.9751 259.67C65.4551 259.23 66.0017 258.896 66.6151 258.67C67.2417 258.443 67.8951 258.33 68.5751 258.33C69.2551 258.33 69.9017 258.443 70.5151 258.67C71.1417 258.896 71.6951 259.23 72.1751 259.67C72.6551 260.11 73.0351 260.65 73.3151 261.29C73.5951 261.916 73.7351 262.636 73.7351 263.45V263.69ZM68.5751 266.41C68.9351 266.41 69.2751 266.35 69.5951 266.23C69.9151 266.11 70.1951 265.936 70.4351 265.71C70.6751 265.483 70.8617 265.21 70.9951 264.89C71.1417 264.556 71.2151 264.183 71.2151 263.77V263.37C71.2151 262.956 71.1417 262.59 70.9951 262.27C70.8617 261.936 70.6751 261.656 70.4351 261.43C70.1951 261.203 69.9151 261.03 69.5951 260.91C69.2751 260.79 68.9351 260.73 68.5751 260.73C68.2151 260.73 67.8751 260.79 67.5551 260.91C67.2351 261.03 66.9551 261.203 66.7151 261.43C66.4751 261.656 66.2817 261.936 66.1351 262.27C66.0017 262.59 65.9351 262.956 65.9351 263.37V263.77C65.9351 264.183 66.0017 264.556 66.1351 264.89C66.2817 265.21 66.4751 265.483 66.7151 265.71C66.9551 265.936 67.2351 266.11 67.5551 266.23C67.8751 266.35 68.2151 266.41 68.5751 266.41ZM82.9812 258.61H85.5012V268.53H82.9812V267.09H82.6212C82.1812 268.236 81.2345 268.81 79.7812 268.81C79.2878 268.81 78.8278 268.73 78.4012 268.57C77.9745 268.41 77.6012 268.163 77.2812 267.83C76.9612 267.496 76.7078 267.083 76.5212 266.59C76.3478 266.083 76.2612 265.49 76.2612 264.81V258.61H78.7812V264.29C78.7812 264.996 78.9478 265.55 79.2812 265.95C79.6145 266.336 80.1145 266.53 80.7812 266.53C81.5412 266.53 82.0945 266.29 82.4412 265.81C82.8012 265.316 82.9812 264.65 82.9812 263.81V258.61ZM88.2273 258.61H91.1673V254.53H93.6873V258.61H97.2673V261.01H93.6873V265.53C93.6873 265.93 93.8673 266.13 94.2273 266.13H96.9073V268.53H92.7073C92.2539 268.53 91.8806 268.383 91.5873 268.09C91.3073 267.796 91.1673 267.423 91.1673 266.97V261.01H88.2273V258.61ZM119.719 258.61H122.239V270.97C122.239 271.423 122.093 271.796 121.799 272.09C121.519 272.383 121.153 272.53 120.699 272.53H114.799V270.13H119.179C119.539 270.13 119.719 269.93 119.719 269.53V267.09H119.359C118.919 268.236 117.973 268.81 116.519 268.81C116.026 268.81 115.566 268.73 115.139 268.57C114.713 268.41 114.339 268.163 114.019 267.83C113.699 267.496 113.446 267.083 113.259 266.59C113.086 266.083 112.999 265.49 112.999 264.81V258.61H115.519V264.29C115.519 264.996 115.686 265.55 116.019 265.95C116.353 266.336 116.853 266.53 117.519 266.53C118.279 266.53 118.833 266.29 119.179 265.81C119.539 265.316 119.719 264.65 119.719 263.81V258.61ZM134.966 263.69C134.966 264.516 134.826 265.25 134.546 265.89C134.266 266.516 133.886 267.05 133.406 267.49C132.926 267.916 132.372 268.243 131.746 268.47C131.132 268.696 130.486 268.81 129.806 268.81C129.126 268.81 128.472 268.696 127.846 268.47C127.232 268.243 126.686 267.916 126.206 267.49C125.726 267.05 125.346 266.516 125.066 265.89C124.786 265.25 124.646 264.516 124.646 263.69V263.45C124.646 262.636 124.786 261.916 125.066 261.29C125.346 260.65 125.726 260.11 126.206 259.67C126.686 259.23 127.232 258.896 127.846 258.67C128.472 258.443 129.126 258.33 129.806 258.33C130.486 258.33 131.132 258.443 131.746 258.67C132.372 258.896 132.926 259.23 133.406 259.67C133.886 260.11 134.266 260.65 134.546 261.29C134.826 261.916 134.966 262.636 134.966 263.45V263.69ZM129.806 266.41C130.166 266.41 130.506 266.35 130.826 266.23C131.146 266.11 131.426 265.936 131.666 265.71C131.906 265.483 132.092 265.21 132.226 264.89C132.372 264.556 132.446 264.183 132.446 263.77V263.37C132.446 262.956 132.372 262.59 132.226 262.27C132.092 261.936 131.906 261.656 131.666 261.43C131.426 261.203 131.146 261.03 130.826 260.91C130.506 260.79 130.166 260.73 129.806 260.73C129.446 260.73 129.106 260.79 128.786 260.91C128.466 261.03 128.186 261.203 127.946 261.43C127.706 261.656 127.512 261.936 127.366 262.27C127.232 262.59 127.166 262.956 127.166 263.37V263.77C127.166 264.183 127.232 264.556 127.366 264.89C127.512 265.21 127.706 265.483 127.946 265.71C128.186 265.936 128.466 266.11 128.786 266.23C129.106 266.35 129.446 266.41 129.806 266.41ZM144.212 258.61H146.732V268.53H144.212V267.09H143.852C143.412 268.236 142.465 268.81 141.012 268.81C140.518 268.81 140.058 268.73 139.632 268.57C139.205 268.41 138.832 268.163 138.512 267.83C138.192 267.496 137.938 267.083 137.752 266.59C137.578 266.083 137.492 265.49 137.492 264.81V258.61H140.012V264.29C140.012 264.996 140.178 265.55 140.512 265.95C140.845 266.336 141.345 266.53 142.012 266.53C142.772 266.53 143.325 266.29 143.672 265.81C144.032 265.316 144.212 264.65 144.212 263.81V258.61ZM152.398 266.91C152.398 266.656 152.444 266.416 152.538 266.19C152.644 265.95 152.784 265.75 152.958 265.59C153.131 265.416 153.331 265.283 153.558 265.19C153.784 265.083 154.031 265.03 154.298 265.03C154.551 265.03 154.791 265.083 155.018 265.19C155.258 265.283 155.464 265.416 155.638 265.59C155.811 265.75 155.944 265.95 156.038 266.19C156.144 266.416 156.198 266.656 156.198 266.91V269.35C156.198 269.856 156.024 270.283 155.678 270.63C155.344 270.976 154.924 271.15 154.418 271.15H153.138V269.59H154.098C154.458 269.59 154.638 269.39 154.638 268.99V268.75C154.531 268.79 154.418 268.81 154.298 268.81C154.031 268.81 153.784 268.756 153.558 268.65C153.331 268.556 153.131 268.423 152.958 268.25C152.784 268.076 152.644 267.876 152.538 267.65C152.444 267.423 152.398 267.176 152.398 266.91ZM183.95 268.53H179.59L179.03 261.01V259.81H178.55V261.01L177.99 268.53H173.63L172.97 258.61H175.29L175.73 266.13V267.33H176.21V266.13L176.71 258.61H180.87L181.37 266.13V267.33H181.85V266.13L182.29 258.61H184.61L183.95 268.53ZM196.196 263.69C196.196 264.516 196.056 265.25 195.776 265.89C195.496 266.516 195.116 267.05 194.636 267.49C194.156 267.916 193.603 268.243 192.976 268.47C192.363 268.696 191.716 268.81 191.036 268.81C190.356 268.81 189.703 268.696 189.076 268.47C188.463 268.243 187.916 267.916 187.436 267.49C186.956 267.05 186.576 266.516 186.296 265.89C186.016 265.25 185.876 264.516 185.876 263.69V263.45C185.876 262.636 186.016 261.916 186.296 261.29C186.576 260.65 186.956 260.11 187.436 259.67C187.916 259.23 188.463 258.896 189.076 258.67C189.703 258.443 190.356 258.33 191.036 258.33C191.716 258.33 192.363 258.443 192.976 258.67C193.603 258.896 194.156 259.23 194.636 259.67C195.116 260.11 195.496 260.65 195.776 261.29C196.056 261.916 196.196 262.636 196.196 263.45V263.69ZM191.036 266.41C191.396 266.41 191.736 266.35 192.056 266.23C192.376 266.11 192.656 265.936 192.896 265.71C193.136 265.483 193.323 265.21 193.456 264.89C193.603 264.556 193.676 264.183 193.676 263.77V263.37C193.676 262.956 193.603 262.59 193.456 262.27C193.323 261.936 193.136 261.656 192.896 261.43C192.656 261.203 192.376 261.03 192.056 260.91C191.736 260.79 191.396 260.73 191.036 260.73C190.676 260.73 190.336 260.79 190.016 260.91C189.696 261.03 189.416 261.203 189.176 261.43C188.936 261.656 188.743 261.936 188.596 262.27C188.463 262.59 188.396 262.956 188.396 263.37V263.77C188.396 264.183 188.463 264.556 188.596 264.89C188.743 265.21 188.936 265.483 189.176 265.71C189.416 265.936 189.696 266.11 190.016 266.23C190.336 266.35 190.676 266.41 191.036 266.41ZM198.242 258.61H202.442V260.05H202.802C202.989 259.503 203.302 259.083 203.742 258.79C204.195 258.483 204.735 258.33 205.362 258.33C206.349 258.33 207.142 258.643 207.742 259.27C208.342 259.883 208.642 260.823 208.642 262.09V262.53L206.042 262.77V262.49C206.042 261.943 205.902 261.51 205.622 261.19C205.342 260.856 204.922 260.69 204.362 260.69C203.802 260.69 203.362 260.883 203.042 261.27C202.722 261.656 202.562 262.21 202.562 262.93V266.13H204.842V268.53H198.002V266.13H200.042V261.01H198.242V258.61ZM214.288 262.25H214.768L217.408 258.61H220.168V258.73L216.968 263.27V263.63L220.488 268.41V268.53H217.608L214.768 264.65H214.288V268.53H211.768V254.53H214.288V262.25ZM237.68 264.39C237.694 264.683 237.76 264.956 237.88 265.21C238.014 265.45 238.187 265.663 238.4 265.85C238.627 266.023 238.88 266.163 239.16 266.27C239.454 266.363 239.76 266.41 240.08 266.41C240.707 266.41 241.187 266.303 241.52 266.09C241.854 265.863 242.094 265.596 242.24 265.29L244.4 266.49C244.28 266.743 244.114 267.01 243.9 267.29C243.687 267.556 243.407 267.803 243.06 268.03C242.727 268.256 242.314 268.443 241.82 268.59C241.34 268.736 240.774 268.81 240.12 268.81C239.374 268.81 238.694 268.69 238.08 268.45C237.467 268.21 236.934 267.863 236.48 267.41C236.04 266.956 235.694 266.403 235.44 265.75C235.2 265.096 235.08 264.356 235.08 263.53V263.41C235.08 262.65 235.207 261.956 235.46 261.33C235.727 260.703 236.087 260.17 236.54 259.73C236.994 259.29 237.52 258.95 238.12 258.71C238.734 258.456 239.387 258.33 240.08 258.33C240.934 258.33 241.667 258.483 242.28 258.79C242.894 259.083 243.4 259.463 243.8 259.93C244.2 260.383 244.494 260.89 244.68 261.45C244.867 261.996 244.96 262.53 244.96 263.05V264.39H237.68ZM240.06 260.61C239.42 260.61 238.9 260.776 238.5 261.11C238.1 261.43 237.84 261.803 237.72 262.23H242.4C242.32 261.763 242.067 261.376 241.64 261.07C241.227 260.763 240.7 260.61 240.06 260.61ZM254.286 258.61H257.066L254.666 263.27V263.63L257.206 268.53H254.306L252.446 264.65H252.086L250.226 268.53H247.326L249.866 263.63V263.27L247.446 258.61H250.246L252.086 262.25H252.446L254.286 258.61ZM261.953 272.53H259.433V258.61H261.953V260.05H262.313C262.579 259.503 262.966 259.083 263.473 258.79C263.979 258.483 264.626 258.33 265.413 258.33C265.999 258.33 266.553 258.443 267.073 258.67C267.606 258.896 268.066 259.23 268.453 259.67C268.853 260.096 269.166 260.623 269.393 261.25C269.633 261.876 269.753 262.59 269.753 263.39V263.75C269.753 264.563 269.639 265.283 269.413 265.91C269.186 266.536 268.879 267.07 268.493 267.51C268.106 267.936 267.646 268.263 267.113 268.49C266.593 268.703 266.026 268.81 265.413 268.81C264.959 268.81 264.566 268.763 264.233 268.67C263.899 268.576 263.606 268.45 263.353 268.29C263.113 268.13 262.906 267.95 262.733 267.75C262.573 267.536 262.433 267.316 262.313 267.09H261.953V272.53ZM264.593 266.41C265.379 266.41 266.013 266.17 266.493 265.69C266.986 265.196 267.233 264.53 267.233 263.69V263.45C267.233 262.61 266.986 261.95 266.493 261.47C266.013 260.976 265.379 260.73 264.593 260.73C263.806 260.73 263.166 260.983 262.673 261.49C262.193 261.983 261.953 262.636 261.953 263.45V263.69C261.953 264.503 262.193 265.163 262.673 265.67C263.166 266.163 263.806 266.41 264.593 266.41ZM274.419 264.39C274.432 264.683 274.499 264.956 274.619 265.21C274.752 265.45 274.925 265.663 275.139 265.85C275.365 266.023 275.619 266.163 275.899 266.27C276.192 266.363 276.499 266.41 276.819 266.41C277.445 266.41 277.925 266.303 278.259 266.09C278.592 265.863 278.832 265.596 278.979 265.29L281.139 266.49C281.019 266.743 280.852 267.01 280.639 267.29C280.425 267.556 280.145 267.803 279.799 268.03C279.465 268.256 279.052 268.443 278.559 268.59C278.079 268.736 277.512 268.81 276.859 268.81C276.112 268.81 275.432 268.69 274.819 268.45C274.205 268.21 273.672 267.863 273.219 267.41C272.779 266.956 272.432 266.403 272.179 265.75C271.939 265.096 271.819 264.356 271.819 263.53V263.41C271.819 262.65 271.945 261.956 272.199 261.33C272.465 260.703 272.825 260.17 273.279 259.73C273.732 259.29 274.259 258.95 274.859 258.71C275.472 258.456 276.125 258.33 276.819 258.33C277.672 258.33 278.405 258.483 279.019 258.79C279.632 259.083 280.139 259.463 280.539 259.93C280.939 260.383 281.232 260.89 281.419 261.45C281.605 261.996 281.699 262.53 281.699 263.05V264.39H274.419ZM276.799 260.61C276.159 260.61 275.639 260.776 275.239 261.11C274.839 261.43 274.579 261.803 274.459 262.23H279.139C279.059 261.763 278.805 261.376 278.379 261.07C277.965 260.763 277.439 260.61 276.799 260.61ZM283.965 258.61H288.165V260.05H288.525C288.711 259.503 289.025 259.083 289.465 258.79C289.918 258.483 290.458 258.33 291.085 258.33C292.071 258.33 292.865 258.643 293.465 259.27C294.065 259.883 294.365 260.823 294.365 262.09V262.53L291.765 262.77V262.49C291.765 261.943 291.625 261.51 291.345 261.19C291.065 260.856 290.645 260.69 290.085 260.69C289.525 260.69 289.085 260.883 288.765 261.27C288.445 261.656 288.285 262.21 288.285 262.93V266.13H290.565V268.53H283.725V266.13H285.765V261.01H283.965V258.61ZM296.871 266.13H300.231V261.01H297.111V258.61H302.751V266.13H305.631V268.53H296.871V266.13ZM303.371 255.67C303.371 255.936 303.318 256.19 303.211 256.43C303.118 256.656 302.984 256.856 302.811 257.03C302.638 257.19 302.431 257.323 302.191 257.43C301.964 257.523 301.724 257.57 301.471 257.57C301.204 257.57 300.958 257.523 300.731 257.43C300.504 257.323 300.304 257.19 300.131 257.03C299.958 256.856 299.818 256.656 299.711 256.43C299.618 256.19 299.571 255.936 299.571 255.67C299.571 255.403 299.618 255.156 299.711 254.93C299.818 254.69 299.958 254.49 300.131 254.33C300.304 254.156 300.504 254.023 300.731 253.93C300.958 253.823 301.204 253.77 301.471 253.77C301.724 253.77 301.964 253.823 302.191 253.93C302.431 254.023 302.638 254.156 302.811 254.33C302.984 254.49 303.118 254.69 303.211 254.93C303.318 255.156 303.371 255.403 303.371 255.67ZM311.157 264.39C311.17 264.683 311.237 264.956 311.357 265.21C311.49 265.45 311.664 265.663 311.877 265.85C312.104 266.023 312.357 266.163 312.637 266.27C312.93 266.363 313.237 266.41 313.557 266.41C314.184 266.41 314.664 266.303 314.997 266.09C315.33 265.863 315.57 265.596 315.717 265.29L317.877 266.49C317.757 266.743 317.59 267.01 317.377 267.29C317.164 267.556 316.884 267.803 316.537 268.03C316.204 268.256 315.79 268.443 315.297 268.59C314.817 268.736 314.25 268.81 313.597 268.81C312.85 268.81 312.17 268.69 311.557 268.45C310.944 268.21 310.41 267.863 309.957 267.41C309.517 266.956 309.17 266.403 308.917 265.75C308.677 265.096 308.557 264.356 308.557 263.53V263.41C308.557 262.65 308.684 261.956 308.937 261.33C309.204 260.703 309.564 260.17 310.017 259.73C310.47 259.29 310.997 258.95 311.597 258.71C312.21 258.456 312.864 258.33 313.557 258.33C314.41 258.33 315.144 258.483 315.757 258.79C316.37 259.083 316.877 259.463 317.277 259.93C317.677 260.383 317.97 260.89 318.157 261.45C318.344 261.996 318.437 262.53 318.437 263.05V264.39H311.157ZM313.537 260.61C312.897 260.61 312.377 260.776 311.977 261.11C311.577 261.43 311.317 261.803 311.197 262.23H315.877C315.797 261.763 315.544 261.376 315.117 261.07C314.704 260.763 314.177 260.61 313.537 260.61ZM323.703 268.53H321.183V258.61H323.703V260.09H324.063C324.29 259.53 324.656 259.096 325.163 258.79C325.67 258.483 326.263 258.33 326.943 258.33C327.423 258.33 327.87 258.41 328.283 258.57C328.71 258.716 329.083 258.95 329.403 259.27C329.723 259.59 329.97 259.996 330.143 260.49C330.33 260.983 330.423 261.57 330.423 262.25V268.53H327.903V262.89C327.903 262.183 327.73 261.63 327.383 261.23C327.05 260.816 326.563 260.61 325.923 260.61C325.176 260.61 324.616 260.863 324.243 261.37C323.883 261.863 323.703 262.53 323.703 263.37V268.53ZM343.109 264.89C342.882 266.063 342.342 267.01 341.489 267.73C340.649 268.45 339.522 268.81 338.109 268.81C337.376 268.81 336.689 268.696 336.049 268.47C335.422 268.243 334.876 267.916 334.409 267.49C333.942 267.063 333.576 266.536 333.309 265.91C333.042 265.283 332.909 264.57 332.909 263.77V263.53C332.909 262.73 333.042 262.01 333.309 261.37C333.576 260.73 333.942 260.183 334.409 259.73C334.889 259.276 335.442 258.93 336.069 258.69C336.709 258.45 337.389 258.33 338.109 258.33C339.496 258.33 340.616 258.69 341.469 259.41C342.336 260.13 342.882 261.076 343.109 262.25L340.629 262.89C340.549 262.303 340.296 261.796 339.869 261.37C339.442 260.943 338.842 260.73 338.069 260.73C337.709 260.73 337.369 260.796 337.049 260.93C336.729 261.063 336.449 261.256 336.209 261.51C335.969 261.75 335.776 262.05 335.629 262.41C335.496 262.756 335.429 263.15 335.429 263.59V263.71C335.429 264.15 335.496 264.543 335.629 264.89C335.776 265.223 335.969 265.503 336.209 265.73C336.449 265.956 336.729 266.13 337.049 266.25C337.369 266.356 337.709 266.41 338.069 266.41C338.842 266.41 339.429 266.216 339.829 265.83C340.242 265.443 340.509 264.923 340.629 264.27L343.109 264.89ZM347.895 264.39C347.909 264.683 347.975 264.956 348.095 265.21C348.229 265.45 348.402 265.663 348.615 265.85C348.842 266.023 349.095 266.163 349.375 266.27C349.669 266.363 349.975 266.41 350.295 266.41C350.922 266.41 351.402 266.303 351.735 266.09C352.069 265.863 352.309 265.596 352.455 265.29L354.615 266.49C354.495 266.743 354.329 267.01 354.115 267.29C353.902 267.556 353.622 267.803 353.275 268.03C352.942 268.256 352.529 268.443 352.035 268.59C351.555 268.736 350.989 268.81 350.335 268.81C349.589 268.81 348.909 268.69 348.295 268.45C347.682 268.21 347.149 267.863 346.695 267.41C346.255 266.956 345.909 266.403 345.655 265.75C345.415 265.096 345.295 264.356 345.295 263.53V263.41C345.295 262.65 345.422 261.956 345.675 261.33C345.942 260.703 346.302 260.17 346.755 259.73C347.209 259.29 347.735 258.95 348.335 258.71C348.949 258.456 349.602 258.33 350.295 258.33C351.149 258.33 351.882 258.483 352.495 258.79C353.109 259.083 353.615 259.463 354.015 259.93C354.415 260.383 354.709 260.89 354.895 261.45C355.082 261.996 355.175 262.53 355.175 263.05V264.39H347.895ZM350.275 260.61C349.635 260.61 349.115 260.776 348.715 261.11C348.315 261.43 348.055 261.803 347.935 262.23H352.615C352.535 261.763 352.282 261.376 351.855 261.07C351.442 260.763 350.915 260.61 350.275 260.61ZM376.587 267.09C376.321 267.716 375.947 268.163 375.467 268.43C374.987 268.683 374.427 268.81 373.787 268.81C373.187 268.81 372.621 268.696 372.087 268.47C371.567 268.243 371.107 267.91 370.707 267.47C370.307 267.03 369.987 266.496 369.747 265.87C369.521 265.243 369.407 264.53 369.407 263.73V263.41C369.407 262.623 369.521 261.916 369.747 261.29C369.974 260.663 370.281 260.13 370.667 259.69C371.054 259.25 371.501 258.916 372.007 258.69C372.527 258.45 373.081 258.33 373.667 258.33C374.374 258.33 374.941 258.45 375.367 258.69C375.807 258.93 376.154 259.303 376.407 259.81H376.767V258.61H379.287V265.53C379.287 265.93 379.467 266.13 379.827 266.13H380.207V268.53H378.487C378.034 268.53 377.661 268.396 377.367 268.13C377.087 267.863 376.947 267.516 376.947 267.09H376.587ZM374.347 266.41C375.081 266.41 375.667 266.17 376.107 265.69C376.547 265.196 376.767 264.53 376.767 263.69V263.45C376.767 262.61 376.547 261.95 376.107 261.47C375.667 260.976 375.081 260.73 374.347 260.73C373.614 260.73 373.027 260.976 372.587 261.47C372.147 261.95 371.927 262.61 371.927 263.45V263.69C371.927 264.53 372.147 265.196 372.587 265.69C373.027 266.17 373.614 266.41 374.347 266.41ZM384.934 268.53H382.414V258.61H384.934V260.09H385.294C385.52 259.53 385.887 259.096 386.394 258.79C386.9 258.483 387.494 258.33 388.174 258.33C388.654 258.33 389.1 258.41 389.514 258.57C389.94 258.716 390.314 258.95 390.634 259.27C390.954 259.59 391.2 259.996 391.374 260.49C391.56 260.983 391.654 261.57 391.654 262.25V268.53H389.134V262.89C389.134 262.183 388.96 261.63 388.614 261.23C388.28 260.816 387.794 260.61 387.154 260.61C386.407 260.61 385.847 260.863 385.474 261.37C385.114 261.863 384.934 262.53 384.934 263.37V268.53ZM401.78 267.09H401.42C401.313 267.316 401.18 267.536 401.02 267.75C400.873 267.95 400.673 268.13 400.42 268.29C400.18 268.45 399.886 268.576 399.54 268.67C399.206 268.763 398.8 268.81 398.32 268.81C397.706 268.81 397.133 268.703 396.6 268.49C396.08 268.263 395.62 267.936 395.22 267.51C394.833 267.07 394.526 266.536 394.3 265.91C394.086 265.283 393.98 264.563 393.98 263.75V263.39C393.98 262.59 394.093 261.876 394.32 261.25C394.56 260.623 394.88 260.096 395.28 259.67C395.693 259.23 396.166 258.896 396.7 258.67C397.246 258.443 397.82 258.33 398.42 258.33C399.22 258.33 399.853 258.483 400.32 258.79C400.786 259.083 401.153 259.503 401.42 260.05H401.78V254.53H404.3V268.53H401.78V267.09ZM399.14 266.41C399.926 266.41 400.56 266.163 401.04 265.67C401.533 265.163 401.78 264.503 401.78 263.69V263.45C401.78 262.636 401.533 261.983 401.04 261.49C400.56 260.983 399.926 260.73 399.14 260.73C398.353 260.73 397.713 260.976 397.22 261.47C396.74 261.95 396.5 262.61 396.5 263.45V263.69C396.5 264.53 396.74 265.196 397.22 265.69C397.713 266.17 398.353 266.41 399.14 266.41ZM425.872 258.61H428.392V270.97C428.392 271.423 428.245 271.796 427.952 272.09C427.672 272.383 427.305 272.53 426.852 272.53H420.952V270.13H425.332C425.692 270.13 425.872 269.93 425.872 269.53V267.09H425.512C425.072 268.236 424.125 268.81 422.672 268.81C422.178 268.81 421.718 268.73 421.292 268.57C420.865 268.41 420.492 268.163 420.172 267.83C419.852 267.496 419.598 267.083 419.412 266.59C419.238 266.083 419.152 265.49 419.152 264.81V258.61H421.672V264.29C421.672 264.996 421.838 265.55 422.172 265.95C422.505 266.336 423.005 266.53 423.672 266.53C424.432 266.53 424.985 266.29 425.332 265.81C425.692 265.316 425.872 264.65 425.872 263.81V258.61ZM441.118 263.69C441.118 264.516 440.978 265.25 440.698 265.89C440.418 266.516 440.038 267.05 439.558 267.49C439.078 267.916 438.525 268.243 437.898 268.47C437.285 268.696 436.638 268.81 435.958 268.81C435.278 268.81 434.625 268.696 433.998 268.47C433.385 268.243 432.838 267.916 432.358 267.49C431.878 267.05 431.498 266.516 431.218 265.89C430.938 265.25 430.798 264.516 430.798 263.69V263.45C430.798 262.636 430.938 261.916 431.218 261.29C431.498 260.65 431.878 260.11 432.358 259.67C432.838 259.23 433.385 258.896 433.998 258.67C434.625 258.443 435.278 258.33 435.958 258.33C436.638 258.33 437.285 258.443 437.898 258.67C438.525 258.896 439.078 259.23 439.558 259.67C440.038 260.11 440.418 260.65 440.698 261.29C440.978 261.916 441.118 262.636 441.118 263.45V263.69ZM435.958 266.41C436.318 266.41 436.658 266.35 436.978 266.23C437.298 266.11 437.578 265.936 437.818 265.71C438.058 265.483 438.245 265.21 438.378 264.89C438.525 264.556 438.598 264.183 438.598 263.77V263.37C438.598 262.956 438.525 262.59 438.378 262.27C438.245 261.936 438.058 261.656 437.818 261.43C437.578 261.203 437.298 261.03 436.978 260.91C436.658 260.79 436.318 260.73 435.958 260.73C435.598 260.73 435.258 260.79 434.938 260.91C434.618 261.03 434.338 261.203 434.098 261.43C433.858 261.656 433.665 261.936 433.518 262.27C433.385 262.59 433.318 262.956 433.318 263.37V263.77C433.318 264.183 433.385 264.556 433.518 264.89C433.665 265.21 433.858 265.483 434.098 265.71C434.338 265.936 434.618 266.11 434.938 266.23C435.258 266.35 435.598 266.41 435.958 266.41ZM450.364 258.61H452.884V268.53H450.364V267.09H450.004C449.564 268.236 448.617 268.81 447.164 268.81C446.671 268.81 446.211 268.73 445.784 268.57C445.357 268.41 444.984 268.163 444.664 267.83C444.344 267.496 444.091 267.083 443.904 266.59C443.731 266.083 443.644 265.49 443.644 264.81V258.61H446.164V264.29C446.164 264.996 446.331 265.55 446.664 265.95C446.997 266.336 447.497 266.53 448.164 266.53C448.924 266.53 449.477 266.29 449.824 265.81C450.184 265.316 450.364 264.65 450.364 263.81V258.61ZM455.41 258.61H459.61V260.05H459.97C460.157 259.503 460.47 259.083 460.91 258.79C461.363 258.483 461.903 258.33 462.53 258.33C463.517 258.33 464.31 258.643 464.91 259.27C465.51 259.883 465.81 260.823 465.81 262.09V262.53L463.21 262.77V262.49C463.21 261.943 463.07 261.51 462.79 261.19C462.51 260.856 462.09 260.69 461.53 260.69C460.97 260.69 460.53 260.883 460.21 261.27C459.89 261.656 459.73 262.21 459.73 262.93V266.13H462.01V268.53H455.17V266.13H457.21V261.01H455.41V258.61ZM482.382 272.53H479.862V258.61H482.382V260.05H482.742C483.009 259.503 483.396 259.083 483.902 258.79C484.409 258.483 485.056 258.33 485.842 258.33C486.429 258.33 486.982 258.443 487.502 258.67C488.036 258.896 488.496 259.23 488.882 259.67C489.282 260.096 489.596 260.623 489.822 261.25C490.062 261.876 490.182 262.59 490.182 263.39V263.75C490.182 264.563 490.069 265.283 489.842 265.91C489.616 266.536 489.309 267.07 488.922 267.51C488.536 267.936 488.076 268.263 487.542 268.49C487.022 268.703 486.456 268.81 485.842 268.81C485.389 268.81 484.996 268.763 484.662 268.67C484.329 268.576 484.036 268.45 483.782 268.29C483.542 268.13 483.336 267.95 483.162 267.75C483.002 267.536 482.862 267.316 482.742 267.09H482.382V272.53ZM485.022 266.41C485.809 266.41 486.442 266.17 486.922 265.69C487.416 265.196 487.662 264.53 487.662 263.69V263.45C487.662 262.61 487.416 261.95 486.922 261.47C486.442 260.976 485.809 260.73 485.022 260.73C484.236 260.73 483.596 260.983 483.102 261.49C482.622 261.983 482.382 262.636 482.382 263.45V263.69C482.382 264.503 482.622 265.163 483.102 265.67C483.596 266.163 484.236 266.41 485.022 266.41ZM492.148 258.61H496.348V260.05H496.708C496.895 259.503 497.208 259.083 497.648 258.79C498.102 258.483 498.642 258.33 499.268 258.33C500.255 258.33 501.048 258.643 501.648 259.27C502.248 259.883 502.548 260.823 502.548 262.09V262.53L499.948 262.77V262.49C499.948 261.943 499.808 261.51 499.528 261.19C499.248 260.856 498.828 260.69 498.268 260.69C497.708 260.69 497.268 260.883 496.948 261.27C496.628 261.656 496.468 262.21 496.468 262.93V266.13H498.748V268.53H491.908V266.13H493.948V261.01H492.148V258.61ZM514.594 263.69C514.594 264.516 514.454 265.25 514.174 265.89C513.894 266.516 513.514 267.05 513.034 267.49C512.554 267.916 512.001 268.243 511.374 268.47C510.761 268.696 510.114 268.81 509.434 268.81C508.754 268.81 508.101 268.696 507.474 268.47C506.861 268.243 506.314 267.916 505.834 267.49C505.354 267.05 504.974 266.516 504.694 265.89C504.414 265.25 504.274 264.516 504.274 263.69V263.45C504.274 262.636 504.414 261.916 504.694 261.29C504.974 260.65 505.354 260.11 505.834 259.67C506.314 259.23 506.861 258.896 507.474 258.67C508.101 258.443 508.754 258.33 509.434 258.33C510.114 258.33 510.761 258.443 511.374 258.67C512.001 258.896 512.554 259.23 513.034 259.67C513.514 260.11 513.894 260.65 514.174 261.29C514.454 261.916 514.594 262.636 514.594 263.45V263.69ZM509.434 266.41C509.794 266.41 510.134 266.35 510.454 266.23C510.774 266.11 511.054 265.936 511.294 265.71C511.534 265.483 511.721 265.21 511.854 264.89C512.001 264.556 512.074 264.183 512.074 263.77V263.37C512.074 262.956 512.001 262.59 511.854 262.27C511.721 261.936 511.534 261.656 511.294 261.43C511.054 261.203 510.774 261.03 510.454 260.91C510.134 260.79 509.794 260.73 509.434 260.73C509.074 260.73 508.734 260.79 508.414 260.91C508.094 261.03 507.814 261.203 507.574 261.43C507.334 261.656 507.141 261.936 506.994 262.27C506.861 262.59 506.794 262.956 506.794 263.37V263.77C506.794 264.183 506.861 264.556 506.994 264.89C507.141 265.21 507.334 265.483 507.574 265.71C507.814 265.936 508.094 266.11 508.414 266.23C508.734 266.35 509.074 266.41 509.434 266.41ZM518.081 258.61H524.441V270.49C524.441 271.183 524.254 271.696 523.881 272.03C523.507 272.363 523.021 272.53 522.421 272.53H517.721V270.13H521.321C521.721 270.13 521.921 269.91 521.921 269.47V261.01H518.081V258.61ZM525.041 255.67C525.041 255.936 524.987 256.19 524.881 256.43C524.787 256.656 524.654 256.856 524.481 257.03C524.307 257.19 524.101 257.323 523.861 257.43C523.634 257.523 523.394 257.57 523.141 257.57C522.874 257.57 522.627 257.523 522.401 257.43C522.174 257.323 521.974 257.19 521.801 257.03C521.627 256.856 521.487 256.656 521.381 256.43C521.287 256.19 521.241 255.936 521.241 255.67C521.241 255.403 521.287 255.156 521.381 254.93C521.487 254.69 521.627 254.49 521.801 254.33C521.974 254.156 522.174 254.023 522.401 253.93C522.627 253.823 522.874 253.77 523.141 253.77C523.394 253.77 523.634 253.823 523.861 253.93C524.101 254.023 524.307 254.156 524.481 254.33C524.654 254.49 524.787 254.69 524.881 254.93C524.987 255.156 525.041 255.403 525.041 255.67ZM531.587 264.39C531.6 264.683 531.667 264.956 531.787 265.21C531.92 265.45 532.093 265.663 532.307 265.85C532.533 266.023 532.787 266.163 533.067 266.27C533.36 266.363 533.667 266.41 533.987 266.41C534.613 266.41 535.093 266.303 535.427 266.09C535.76 265.863 536 265.596 536.147 265.29L538.307 266.49C538.187 266.743 538.02 267.01 537.807 267.29C537.593 267.556 537.313 267.803 536.967 268.03C536.633 268.256 536.22 268.443 535.727 268.59C535.247 268.736 534.68 268.81 534.027 268.81C533.28 268.81 532.6 268.69 531.987 268.45C531.373 268.21 530.84 267.863 530.387 267.41C529.947 266.956 529.6 266.403 529.347 265.75C529.107 265.096 528.987 264.356 528.987 263.53V263.41C528.987 262.65 529.113 261.956 529.367 261.33C529.633 260.703 529.993 260.17 530.447 259.73C530.9 259.29 531.427 258.95 532.027 258.71C532.64 258.456 533.293 258.33 533.987 258.33C534.84 258.33 535.573 258.483 536.187 258.79C536.8 259.083 537.307 259.463 537.707 259.93C538.107 260.383 538.4 260.89 538.587 261.45C538.773 261.996 538.867 262.53 538.867 263.05V264.39H531.587ZM533.967 260.61C533.327 260.61 532.807 260.776 532.407 261.11C532.007 261.43 531.747 261.803 531.627 262.23H536.307C536.227 261.763 535.973 261.376 535.547 261.07C535.133 260.763 534.607 260.61 533.967 260.61ZM551.293 264.89C551.066 266.063 550.526 267.01 549.673 267.73C548.833 268.45 547.706 268.81 546.293 268.81C545.559 268.81 544.873 268.696 544.233 268.47C543.606 268.243 543.059 267.916 542.593 267.49C542.126 267.063 541.759 266.536 541.493 265.91C541.226 265.283 541.093 264.57 541.093 263.77V263.53C541.093 262.73 541.226 262.01 541.493 261.37C541.759 260.73 542.126 260.183 542.593 259.73C543.073 259.276 543.626 258.93 544.253 258.69C544.893 258.45 545.573 258.33 546.293 258.33C547.679 258.33 548.799 258.69 549.653 259.41C550.519 260.13 551.066 261.076 551.293 262.25L548.813 262.89C548.733 262.303 548.479 261.796 548.053 261.37C547.626 260.943 547.026 260.73 546.253 260.73C545.893 260.73 545.553 260.796 545.233 260.93C544.913 261.063 544.633 261.256 544.393 261.51C544.153 261.75 543.959 262.05 543.813 262.41C543.679 262.756 543.613 263.15 543.613 263.59V263.71C543.613 264.15 543.679 264.543 543.813 264.89C543.959 265.223 544.153 265.503 544.393 265.73C544.633 265.956 544.913 266.13 545.233 266.25C545.553 266.356 545.893 266.41 546.253 266.41C547.026 266.41 547.613 266.216 548.013 265.83C548.426 265.443 548.693 264.923 548.813 264.27L551.293 264.89ZM553.579 258.61H556.519V254.53H559.039V258.61H562.619V261.01H559.039V265.53C559.039 265.93 559.219 266.13 559.579 266.13H562.259V268.53H558.059C557.605 268.53 557.232 268.383 556.939 268.09C556.659 267.796 556.519 267.423 556.519 266.97V261.01H553.579V258.61ZM569.265 261.41C569.265 261.73 569.432 261.963 569.765 262.11C570.098 262.243 570.705 262.356 571.585 262.45C572.598 262.556 573.425 262.863 574.065 263.37C574.705 263.863 575.025 264.556 575.025 265.45V265.57C575.025 266.556 574.665 267.343 573.945 267.93C573.225 268.516 572.212 268.81 570.905 268.81C570.132 268.81 569.472 268.71 568.925 268.51C568.378 268.31 567.925 268.063 567.565 267.77C567.205 267.463 566.925 267.13 566.725 266.77C566.538 266.396 566.412 266.036 566.345 265.69L568.665 264.93C568.772 265.356 568.992 265.73 569.325 266.05C569.672 266.37 570.198 266.53 570.905 266.53C571.532 266.53 571.958 266.436 572.185 266.25C572.425 266.05 572.545 265.836 572.545 265.61C572.545 265.476 572.512 265.356 572.445 265.25C572.392 265.13 572.285 265.023 572.125 264.93C571.965 264.823 571.745 264.736 571.465 264.67C571.198 264.603 570.858 264.55 570.445 264.51C569.325 264.416 568.432 264.13 567.765 263.65C567.112 263.156 566.785 262.436 566.785 261.49V261.37C566.785 260.876 566.892 260.443 567.105 260.07C567.318 259.696 567.598 259.383 567.945 259.13C568.292 258.863 568.692 258.663 569.145 258.53C569.598 258.396 570.065 258.33 570.545 258.33C571.172 258.33 571.712 258.41 572.165 258.57C572.632 258.716 573.025 258.916 573.345 259.17C573.665 259.41 573.925 259.683 574.125 259.99C574.325 260.283 574.478 260.57 574.585 260.85L572.305 261.77C572.185 261.41 571.978 261.13 571.685 260.93C571.392 260.716 571.012 260.61 570.545 260.61C570.118 260.61 569.798 260.69 569.585 260.85C569.372 260.996 569.265 261.183 569.265 261.41ZM584.811 266.91C584.811 267.176 584.758 267.43 584.651 267.67C584.558 267.896 584.424 268.096 584.251 268.27C584.078 268.43 583.871 268.556 583.631 268.65C583.404 268.756 583.164 268.81 582.911 268.81C582.644 268.81 582.398 268.756 582.171 268.65C581.944 268.556 581.744 268.43 581.571 268.27C581.398 268.096 581.258 267.896 581.151 267.67C581.058 267.43 581.011 267.176 581.011 266.91C581.011 266.643 581.058 266.396 581.151 266.17C581.258 265.93 581.398 265.73 581.571 265.57C581.744 265.396 581.944 265.263 582.171 265.17C582.398 265.063 582.644 265.01 582.911 265.01C583.164 265.01 583.404 265.063 583.631 265.17C583.871 265.263 584.078 265.396 584.251 265.57C584.424 265.73 584.558 265.93 584.651 266.17C584.758 266.396 584.811 266.643 584.811 266.91Z" fill="white"/>
<circle cx="889" cy="241.03" r="3.5" fill="#3936AB"/>
<g filter="url(#filter2_d)">
<path d="M824.5 163.53C820.082 163.53 816.5 167.096 816.5 171.496V213.319C816.5 217.718 820.082 221.285 824.5 221.285H880.358L889.642 230.53L898.926 221.285H948.5C952.918 221.285 956.5 217.718 956.5 213.319V171.496C956.5 167.096 952.918 163.53 948.5 163.53H824.5Z" fill="#3936AB"/>
</g>
<path d="M844.571 190.697C844.571 190.193 844.373 189.755 843.977 189.383C843.593 189.011 843.047 188.825 842.339 188.825C841.739 188.825 841.265 188.951 840.917 189.203C840.569 189.443 840.395 189.773 840.395 190.193C840.395 190.409 840.437 190.607 840.521 190.787C840.605 190.955 840.749 191.111 840.953 191.255C841.169 191.387 841.445 191.507 841.781 191.615C842.129 191.723 842.567 191.825 843.095 191.921C844.415 192.161 845.423 192.563 846.119 193.127C846.815 193.691 847.163 194.525 847.163 195.629V195.845C847.163 196.433 847.055 196.967 846.839 197.447C846.635 197.915 846.335 198.317 845.939 198.653C845.543 198.989 845.063 199.247 844.499 199.427C843.935 199.607 843.299 199.697 842.591 199.697C841.763 199.697 841.031 199.583 840.395 199.355C839.771 199.115 839.249 198.791 838.829 198.383C838.409 197.963 838.091 197.477 837.875 196.925C837.659 196.361 837.551 195.749 837.551 195.089V194.549H839.927V194.981C839.927 195.737 840.143 196.343 840.575 196.799C841.019 197.243 841.703 197.465 842.627 197.465C843.347 197.465 843.881 197.309 844.229 196.997C844.577 196.685 844.751 196.313 844.751 195.881C844.751 195.677 844.715 195.485 844.643 195.305C844.571 195.113 844.445 194.945 844.265 194.801C844.085 194.645 843.839 194.507 843.527 194.387C843.215 194.267 842.819 194.165 842.339 194.081C841.703 193.973 841.121 193.835 840.593 193.667C840.065 193.487 839.603 193.253 839.207 192.965C838.823 192.677 838.523 192.317 838.307 191.885C838.091 191.453 837.983 190.925 837.983 190.301V190.193C837.983 189.677 838.085 189.203 838.289 188.771C838.505 188.327 838.799 187.943 839.171 187.619C839.555 187.295 840.011 187.043 840.539 186.863C841.079 186.683 841.679 186.593 842.339 186.593C843.083 186.593 843.743 186.701 844.319 186.917C844.895 187.121 845.375 187.403 845.759 187.763C846.155 188.123 846.449 188.537 846.641 189.005C846.845 189.473 846.947 189.965 846.947 190.481V191.129H844.571V190.697ZM851.633 199.445H849.365V186.845H851.633V191.957H851.957C852.185 191.417 852.521 191.003 852.965 190.715C853.409 190.415 853.955 190.265 854.603 190.265C855.047 190.265 855.455 190.337 855.827 190.481C856.199 190.625 856.523 190.841 856.799 191.129C857.075 191.417 857.291 191.789 857.447 192.245C857.603 192.689 857.681 193.217 857.681 193.829V199.445H855.413V194.369C855.413 193.733 855.257 193.235 854.945 192.875C854.645 192.503 854.207 192.317 853.631 192.317C852.959 192.317 852.455 192.545 852.119 193.001C851.795 193.445 851.633 194.045 851.633 194.801V199.445ZM866.128 198.149C865.888 198.713 865.552 199.115 865.12 199.355C864.688 199.583 864.184 199.697 863.608 199.697C863.068 199.697 862.558 199.595 862.078 199.391C861.61 199.187 861.196 198.887 860.836 198.491C860.476 198.095 860.188 197.615 859.972 197.051C859.768 196.487 859.666 195.845 859.666 195.125V194.837C859.666 194.129 859.768 193.493 859.972 192.929C860.176 192.365 860.452 191.885 860.8 191.489C861.148 191.093 861.55 190.793 862.006 190.589C862.474 190.373 862.972 190.265 863.5 190.265C864.136 190.265 864.646 190.373 865.03 190.589C865.426 190.805 865.738 191.141 865.966 191.597H866.29V190.517H868.558V196.745C868.558 197.105 868.72 197.285 869.044 197.285H869.386V199.445H867.838C867.43 199.445 867.094 199.325 866.83 199.085C866.578 198.845 866.452 198.533 866.452 198.149H866.128ZM864.112 197.537C864.772 197.537 865.3 197.321 865.696 196.889C866.092 196.445 866.29 195.845 866.29 195.089V194.873C866.29 194.117 866.092 193.523 865.696 193.091C865.3 192.647 864.772 192.425 864.112 192.425C863.452 192.425 862.924 192.647 862.528 193.091C862.132 193.523 861.934 194.117 861.934 194.873V195.089C861.934 195.845 862.132 196.445 862.528 196.889C862.924 197.321 863.452 197.537 864.112 197.537ZM870.94 190.517H874.72V191.813H875.044C875.212 191.321 875.494 190.943 875.89 190.679C876.298 190.403 876.784 190.265 877.348 190.265C878.236 190.265 878.95 190.547 879.49 191.111C880.03 191.663 880.3 192.509 880.3 193.649V194.045L877.96 194.261V194.009C877.96 193.517 877.834 193.127 877.582 192.839C877.33 192.539 876.952 192.389 876.448 192.389C875.944 192.389 875.548 192.563 875.26 192.911C874.972 193.259 874.828 193.757 874.828 194.405V197.285H876.88V199.445H870.724V197.285H872.56V192.677H870.94V190.517ZM884.391 195.719C884.403 195.983 884.463 196.229 884.571 196.457C884.691 196.673 884.847 196.865 885.039 197.033C885.243 197.189 885.471 197.315 885.723 197.411C885.987 197.495 886.263 197.537 886.551 197.537C887.115 197.537 887.547 197.441 887.847 197.249C888.147 197.045 888.363 196.805 888.495 196.529L890.439 197.609C890.331 197.837 890.181 198.077 889.989 198.329C889.797 198.569 889.545 198.791 889.233 198.995C888.933 199.199 888.561 199.367 888.117 199.499C887.685 199.631 887.175 199.697 886.587 199.697C885.915 199.697 885.303 199.589 884.751 199.373C884.199 199.157 883.719 198.845 883.311 198.437C882.915 198.029 882.603 197.531 882.375 196.943C882.159 196.355 882.051 195.689 882.051 194.945V194.837C882.051 194.153 882.165 193.529 882.393 192.965C882.633 192.401 882.957 191.921 883.365 191.525C883.773 191.129 884.247 190.823 884.787 190.607C885.339 190.379 885.927 190.265 886.551 190.265C887.319 190.265 887.979 190.403 888.531 190.679C889.083 190.943 889.539 191.285 889.899 191.705C890.259 192.113 890.523 192.569 890.691 193.073C890.859 193.565 890.943 194.045 890.943 194.513V195.719H884.391ZM886.533 192.317C885.957 192.317 885.489 192.467 885.129 192.767C884.769 193.055 884.535 193.391 884.427 193.775H888.639C888.567 193.355 888.339 193.007 887.955 192.731C887.583 192.455 887.109 192.317 886.533 192.317ZM904.598 197.285H907.622V192.677H904.814V190.517H909.89V197.285H912.482V199.445H904.598V197.285ZM910.448 187.871C910.448 188.111 910.4 188.339 910.304 188.555C910.22 188.759 910.1 188.939 909.944 189.095C909.788 189.239 909.602 189.359 909.386 189.455C909.182 189.539 908.966 189.581 908.738 189.581C908.498 189.581 908.276 189.539 908.072 189.455C907.868 189.359 907.688 189.239 907.532 189.095C907.376 188.939 907.25 188.759 907.154 188.555C907.07 188.339 907.028 188.111 907.028 187.871C907.028 187.631 907.07 187.409 907.154 187.205C907.25 186.989 907.376 186.809 907.532 186.665C907.688 186.509 907.868 186.389 908.072 186.305C908.276 186.209 908.498 186.161 908.738 186.161C908.966 186.161 909.182 186.209 909.386 186.305C909.602 186.389 909.788 186.509 909.944 186.665C910.1 186.809 910.22 186.989 910.304 187.205C910.4 187.409 910.448 187.631 910.448 187.871ZM915.206 190.517H917.852V186.845H920.12V190.517H923.342V192.677H920.12V196.745C920.12 197.105 920.282 197.285 920.606 197.285H923.018V199.445H919.238C918.83 199.445 918.494 199.313 918.23 199.049C917.978 198.785 917.852 198.449 917.852 198.041V192.677H915.206V190.517ZM932.293 197.987C932.293 198.227 932.245 198.455 932.149 198.671C932.065 198.875 931.945 199.055 931.789 199.211C931.633 199.355 931.447 199.469 931.231 199.553C931.027 199.649 930.811 199.697 930.583 199.697C930.343 199.697 930.121 199.649 929.917 199.553C929.713 199.469 929.533 199.355 929.377 199.211C929.221 199.055 929.095 198.875 928.999 198.671C928.915 198.455 928.873 198.227 928.873 197.987C928.873 197.747 928.915 197.525 928.999 197.321C929.095 197.105 929.221 196.925 929.377 196.781C929.533 196.625 929.713 196.505 929.917 196.421C930.121 196.325 930.343 196.277 930.583 196.277C930.811 196.277 931.027 196.325 931.231 196.421C931.447 196.505 931.633 196.625 931.789 196.781C931.945 196.925 932.065 197.105 932.149 197.321C932.245 197.525 932.293 197.747 932.293 197.987Z" fill="white"/>
<circle cx="848" cy="351.03" r="3.5" fill="#3936AB"/>
<g filter="url(#filter3_d)">
<path d="M697.5 322.53C693.082 322.53 689.5 326.111 689.5 330.53V372.53C689.5 376.948 693.082 380.53 697.5 380.53H821.5C825.918 380.53 829.5 376.948 829.5 372.53V360.956L838.784 351.672L829.5 342.388V330.53C829.5 326.111 825.918 322.53 821.5 322.53H697.5Z" fill="#3936AB"/>
</g>
<path d="M713.575 353.778V358.53H711.199V345.93H716.131C716.779 345.93 717.343 346.038 717.823 346.254C718.303 346.458 718.699 346.734 719.011 347.082C719.335 347.418 719.575 347.808 719.731 348.252C719.899 348.684 719.983 349.128 719.983 349.584V350.016C719.983 350.484 719.899 350.946 719.731 351.402C719.575 351.846 719.335 352.248 719.011 352.608C718.699 352.956 718.303 353.238 717.823 353.454C717.343 353.67 716.779 353.778 716.131 353.778H713.575ZM713.575 351.51H715.897C716.425 351.51 716.839 351.366 717.139 351.078C717.451 350.79 717.607 350.418 717.607 349.962V349.746C717.607 349.29 717.451 348.918 717.139 348.63C716.839 348.342 716.425 348.198 715.897 348.198H713.575V351.51ZM721.897 349.602H725.677V350.898H726.001C726.169 350.406 726.451 350.028 726.847 349.764C727.255 349.488 727.741 349.35 728.305 349.35C729.193 349.35 729.907 349.632 730.447 350.196C730.987 350.748 731.257 351.594 731.257 352.734V353.13L728.917 353.346V353.094C728.917 352.602 728.791 352.212 728.539 351.924C728.287 351.624 727.909 351.474 727.405 351.474C726.901 351.474 726.505 351.648 726.217 351.996C725.929 352.344 725.785 352.842 725.785 353.49V356.37H727.837V358.53H721.681V356.37H723.517V351.762H721.897V349.602ZM733.512 356.37H736.536V351.762H733.728V349.602H738.804V356.37H741.396V358.53H733.512V356.37ZM739.362 346.956C739.362 347.196 739.314 347.424 739.218 347.64C739.134 347.844 739.014 348.024 738.858 348.18C738.702 348.324 738.516 348.444 738.3 348.54C738.096 348.624 737.88 348.666 737.652 348.666C737.412 348.666 737.19 348.624 736.986 348.54C736.782 348.444 736.602 348.324 736.446 348.18C736.29 348.024 736.164 347.844 736.068 347.64C735.984 347.424 735.942 347.196 735.942 346.956C735.942 346.716 735.984 346.494 736.068 346.29C736.164 346.074 736.29 345.894 736.446 345.75C736.602 345.594 736.782 345.474 736.986 345.39C737.19 345.294 737.412 345.246 737.652 345.246C737.88 345.246 738.096 345.294 738.3 345.39C738.516 345.474 738.702 345.594 738.858 345.75C739.014 345.894 739.134 346.074 739.218 346.29C739.314 346.494 739.362 346.716 739.362 346.956ZM746.64 358.53H744.372V349.602H746.64V350.934H746.964C747.168 350.43 747.498 350.04 747.954 349.764C748.41 349.488 748.944 349.35 749.556 349.35C749.988 349.35 750.39 349.422 750.762 349.566C751.146 349.698 751.482 349.908 751.77 350.196C752.058 350.484 752.28 350.85 752.436 351.294C752.604 351.738 752.688 352.266 752.688 352.878V358.53H750.42V353.454C750.42 352.818 750.264 352.32 749.952 351.96C749.652 351.588 749.214 351.402 748.638 351.402C747.966 351.402 747.462 351.63 747.126 352.086C746.802 352.53 746.64 353.13 746.64 353.886V358.53ZM755.141 349.602H757.787V345.93H760.055V349.602H763.277V351.762H760.055V355.83C760.055 356.19 760.217 356.37 760.541 356.37H762.953V358.53H759.173C758.765 358.53 758.429 358.398 758.165 358.134C757.913 357.87 757.787 357.534 757.787 357.126V351.762H755.141V349.602ZM777.598 356.37H780.622V351.762H777.814V349.602H782.89V356.37H785.482V358.53H777.598V356.37ZM783.448 346.956C783.448 347.196 783.4 347.424 783.304 347.64C783.22 347.844 783.1 348.024 782.944 348.18C782.788 348.324 782.602 348.444 782.386 348.54C782.182 348.624 781.966 348.666 781.738 348.666C781.498 348.666 781.276 348.624 781.072 348.54C780.868 348.444 780.688 348.324 780.532 348.18C780.376 348.024 780.25 347.844 780.154 347.64C780.07 347.424 780.028 347.196 780.028 346.956C780.028 346.716 780.07 346.494 780.154 346.29C780.25 346.074 780.376 345.894 780.532 345.75C780.688 345.594 780.868 345.474 781.072 345.39C781.276 345.294 781.498 345.246 781.738 345.246C781.966 345.246 782.182 345.294 782.386 345.39C782.602 345.474 782.788 345.594 782.944 345.75C783.1 345.894 783.22 346.074 783.304 346.29C783.4 346.494 783.448 346.716 783.448 346.956ZM788.206 349.602H790.852V345.93H793.12V349.602H796.342V351.762H793.12V355.83C793.12 356.19 793.282 356.37 793.606 356.37H796.018V358.53H792.238C791.83 358.53 791.494 358.398 791.23 358.134C790.978 357.87 790.852 357.534 790.852 357.126V351.762H788.206V349.602ZM805.293 357.072C805.293 357.312 805.245 357.54 805.149 357.756C805.065 357.96 804.945 358.14 804.789 358.296C804.633 358.44 804.447 358.554 804.231 358.638C804.027 358.734 803.811 358.782 803.583 358.782C803.343 358.782 803.121 358.734 802.917 358.638C802.713 358.554 802.533 358.44 802.377 358.296C802.221 358.14 802.095 357.96 801.999 357.756C801.915 357.54 801.873 357.312 801.873 357.072C801.873 356.832 801.915 356.61 801.999 356.406C802.095 356.19 802.221 356.01 802.377 355.866C802.533 355.71 802.713 355.59 802.917 355.506C803.121 355.41 803.343 355.362 803.583 355.362C803.811 355.362 804.027 355.41 804.231 355.506C804.447 355.59 804.633 355.71 804.789 355.866C804.945 356.01 805.065 356.19 805.149 356.406C805.245 356.61 805.293 356.832 805.293 357.072Z" fill="white"/>
<defs>
<filter id="filter0_d" x="151.5" y="38.5298" width="868" height="588" filterUnits="userSpaceOnUse" color-interpolation-filters="sRGB">
<feFlood flood-opacity="0" result="BackgroundImageFix"/>
<feColorMatrix in="SourceAlpha" type="matrix" values="0 0 0 0 0 0 0 0 0 0 0 0 0 0 0 0 0 0 127 0"/>
<feOffset dy="10"/>
<feGaussianBlur stdDeviation="12"/>
<feColorMatrix type="matrix" values="0 0 0 0 0 0 0 0 0 0 0 0 0 0 0 0 0 0 0.1 0"/>
<feBlend mode="normal" in2="BackgroundImageFix" result="effect1_dropShadow"/>
<feBlend mode="normal" in="SourceGraphic" in2="effect1_dropShadow" result="shape"/>
</filter>
<filter id="filter1_d" x="0.5" y="219.53" width="626" height="106.355" filterUnits="userSpaceOnUse" color-interpolation-filters="sRGB">
<feFlood flood-opacity="0" result="BackgroundImageFix"/>
<feColorMatrix in="SourceAlpha" type="matrix" values="0 0 0 0 0 0 0 0 0 0 0 0 0 0 0 0 0 0 127 0"/>
<feOffset dy="6"/>
<feGaussianBlur stdDeviation="6.5"/>
<feColorMatrix type="matrix" values="0 0 0 0 0 0 0 0 0 0 0 0 0 0 0 0 0 0 0.12 0"/>
<feBlend mode="normal" in2="BackgroundImageFix" result="effect1_dropShadow"/>
<feBlend mode="normal" in="SourceGraphic" in2="effect1_dropShadow" result="shape"/>
</filter>
<filter id="filter2_d" x="803.5" y="156.53" width="166" height="93" filterUnits="userSpaceOnUse" color-interpolation-filters="sRGB">
<feFlood flood-opacity="0" result="BackgroundImageFix"/>
<feColorMatrix in="SourceAlpha" type="matrix" values="0 0 0 0 0 0 0 0 0 0 0 0 0 0 0 0 0 0 127 0"/>
<feOffset dy="6"/>
<feGaussianBlur stdDeviation="6.5"/>
<feColorMatrix type="matrix" values="0 0 0 0 0 0 0 0 0 0 0 0 0 0 0 0 0 0 0.12 0"/>
<feBlend mode="normal" in2="BackgroundImageFix" result="effect1_dropShadow"/>
<feBlend mode="normal" in="SourceGraphic" in2="effect1_dropShadow" result="shape"/>
</filter>
<filter id="filter3_d" x="676.5" y="315.53" width="175.284" height="84" filterUnits="userSpaceOnUse" color-interpolation-filters="sRGB">
<feFlood flood-opacity="0" result="BackgroundImageFix"/>
<feColorMatrix in="SourceAlpha" type="matrix" values="0 0 0 0 0 0 0 0 0 0 0 0 0 0 0 0 0 0 127 0"/>
<feOffset dy="6"/>
<feGaussianBlur stdDeviation="6.5"/>
<feColorMatrix type="matrix" values="0 0 0 0 0 0 0 0 0 0 0 0 0 0 0 0 0 0 0.12 0"/>
<feBlend mode="normal" in2="BackgroundImageFix" result="effect1_dropShadow"/>
<feBlend mode="normal" in="SourceGraphic" in2="effect1_dropShadow" result="shape"/>
</filter>
</defs>
</svg>
